<svg width="121" height="41" viewBox="0 0 121 41" fill="none" xmlns="http://www.w3.org/2000/svg">
<path fill-rule="evenodd" clip-rule="evenodd" d="M107.44 27.8233C114.929 27.8233 121 21.7522 121 14.263C121 6.77381 114.929 0.702637 107.44 0.702637C99.9505 0.702637 93.8793 6.77381 93.8793 14.263H107.44V27.8233Z" fill="#C4C4C4"/>
<path fill-rule="evenodd" clip-rule="evenodd" d="M107.44 27.8233C114.929 27.8233 121 21.7522 121 14.263C121 6.77381 114.929 0.702637 107.44 0.702637C99.9505 0.702637 93.8793 6.77381 93.8793 14.263H107.44V27.8233Z" fill="url(#paint0_angular_611_4503)"/>
<path d="M36.0812 40.0997V27.9685C36.0812 25.1251 34.2231 22.9669 31.4348 22.9669C28.729 22.9669 26.9784 25.0451 26.9784 27.7509V40.0997H23.2573V27.7484C23.2573 22.7193 26.4558 19.3833 31.4873 19.3833C36.5189 19.3833 39.7974 22.6343 39.7974 27.7484V40.0997H36.0812Z" fill="black"/>
<path d="M43.8736 19.8762C46.3619 19.7936 49.6254 19.6836 52.0461 19.6836C56.5475 19.6836 59.5484 21.7067 59.5484 25.1253C59.5484 27.2009 58.4806 28.7339 56.7326 29.6067C59.1383 30.3569 60.4837 32.0124 60.4837 34.5007C60.4837 38.1368 57.6404 40.2975 52.2012 40.2975C49.7129 40.2975 46.3794 40.1874 43.8911 40.1049L43.8736 19.8762ZM47.5922 28.3238H51.9936C54.1793 28.3238 55.7098 27.3385 55.7098 25.6704C55.7098 23.9499 54.2893 23.0946 51.766 23.0946C50.4806 23.0946 48.8676 23.0946 47.5847 23.1772L47.5922 28.3238ZM47.5922 36.7439C48.9027 36.8514 50.6257 36.9064 51.9111 36.9064C54.972 36.9064 56.5575 36.0036 56.5575 34.118C56.5575 32.1774 54.8895 31.2197 52.2662 31.2197H47.5922V36.7439Z" fill="black"/>
<path d="M89.9907 19.876V28.2686H92.9142L98.6284 19.876H102.81L96.1401 29.629L103.192 40.0997H98.8185L93.1617 31.6796H89.9907V40.0997H86.2771V19.876H89.9907Z" fill="black"/>
<path d="M19.9387 27.6534C19.6336 25.1527 18.7833 23.4021 17.763 22.2318C17.618 22.0642 17.4629 21.9067 17.3029 21.7516C17.2453 21.6941 17.1853 21.6366 17.1278 21.5841L17.0253 21.489C16.6838 21.1831 16.3175 20.9062 15.9299 20.6613C14.2401 19.618 12.2863 19.0816 10.3007 19.1158C4.23631 19.1108 0 23.4571 0 29.634C0 35.811 4.2088 40.0998 10.3057 40.0998C13.3941 40.0998 16.075 39.0069 17.9606 37.0113L15.3097 34.278C14.2419 35.6709 12.4664 36.5287 10.4157 36.5287C7.05219 36.5287 4.29133 34.233 3.99124 31.172H19.9962C20.0568 29.9992 20.0375 28.8236 19.9387 27.6534ZM10.1857 22.6919C11.3911 22.6729 12.5775 22.9935 13.6092 23.6172C14.4135 24.121 15.0472 24.8557 15.4273 25.7253C15.7367 26.4409 15.9333 27.2002 16.01 27.976H4.00624C4.37386 24.8226 6.86213 22.6919 10.1957 22.6919H10.1857Z" fill="black"/>
<path d="M83.0083 27.6534C82.7032 25.1527 81.8529 23.4021 80.8326 22.2318C80.6876 22.0642 80.5325 21.9067 80.3725 21.7516C80.315 21.6941 80.2549 21.6366 80.1974 21.5841L80.0949 21.489C79.7535 21.1831 79.3871 20.9062 78.9996 20.6613C77.3097 19.618 75.356 19.0816 73.3703 19.1158C67.301 19.1158 63.0646 23.4621 63.0646 29.6391C63.0646 35.816 67.2709 40.0998 73.3753 40.0998C76.4638 40.0998 79.1446 39.0069 81.0302 37.0113L78.3794 34.278C77.3115 35.6709 75.536 36.5287 73.4854 36.5287C70.1218 36.5287 67.361 34.233 67.0609 31.172H83.0658C83.1264 29.9992 83.1072 28.8236 83.0083 27.6534ZM73.2728 22.6919C74.4782 22.6729 75.6646 22.9935 76.6963 23.6172C77.5001 24.1217 78.1335 24.8562 78.5144 25.7253C78.8227 26.4413 79.0192 27.2004 79.0971 27.976H67.0934C67.4435 24.8226 69.9318 22.6919 73.2728 22.6919Z" fill="black"/>
<defs>
<radialGradient id="paint0_angular_611_4503" cx="0" cy="0" r="1" gradientUnits="userSpaceOnUse" gradientTransform="translate(107.44 14.263) rotate(90) scale(13.5604)">
<stop stop-color="#FFBC7F"/>
<stop offset="0.40109" stop-color="#FFBD81"/>
<stop offset="0.760417" stop-color="#FF9D40"/>
<stop offset="0.9999" stop-color="#FF7E00"/>
</radialGradient>
</defs>
</svg>